<svg width="18" height="18" viewBox="0 0 18 18" fill="none" xmlns="http://www.w3.org/2000/svg">
<path fill-rule="evenodd" clip-rule="evenodd" d="M2.24998 3.75C1.83577 3.75 1.49998 4.08579 1.49998 4.5C1.49998 4.91421 1.83577 5.25 2.24998 5.25H15.75C16.1642 5.25 16.5 4.91421 16.5 4.5C16.5 4.08579 16.1642 3.75 15.75 3.75H2.24998ZM1.49999 7.5C1.49999 7.08579 1.83578 6.75 2.24999 6.75H9.74999C10.1642 6.75 10.5 7.08579 10.5 7.5C10.5 7.91421 10.1642 8.25 9.74999 8.25H2.24999C1.83578 8.25 1.49999 7.91421 1.49999 7.5ZM2.24999 9.75C1.83578 9.75 1.49999 10.0858 1.49999 10.5C1.49999 10.9142 1.83578 11.25 2.24999 11.25H15.75C16.1642 11.25 16.5 10.9142 16.5 10.5C16.5 10.0858 16.1642 9.75 15.75 9.75H2.24999ZM2.24999 12.75C1.83578 12.75 1.49999 13.0858 1.49999 13.5C1.49999 13.9142 1.83578 14.25 2.24999 14.25H12.75C13.1642 14.25 13.5 13.9142 13.5 13.5C13.5 13.0858 13.1642 12.75 12.75 12.75H2.24999Z" fill="#ED9C00"/>
</svg>
