<svg width="18" height="18" viewBox="0 0 18 18" fill="none" xmlns="http://www.w3.org/2000/svg">
<path d="M11.625 10.5H11.0325L10.8225 10.2975C11.5575 9.4425 12 8.3325 12 7.125C12 4.4325 9.81749 2.25 7.12499 2.25C4.43249 2.25 2.24999 4.4325 2.24999 7.125C2.24999 9.8175 4.43249 12 7.12499 12C8.33249 12 9.44249 11.5575 10.2975 10.8225L10.5 11.0325V11.625L14.25 15.3675L15.3675 14.25L11.625 10.5ZM7.12499 10.5C5.25749 10.5 3.74999 8.9925 3.74999 7.125C3.74999 5.2575 5.25749 3.75 7.12499 3.75C8.99249 3.75 10.5 5.2575 10.5 7.125C10.5 8.9925 8.99249 10.5 7.12499 10.5Z" fill="#27AE60"/>
</svg>
